<?xml version="1.0" encoding="utf-8"?>
<!-- Generator: Adobe Illustrator 25.0.1, SVG Export Plug-In . SVG Version: 6.00 Build 0)  -->
<svg version="1.1" id="Layer_1" xmlns="http://www.w3.org/2000/svg" xmlns:xlink="http://www.w3.org/1999/xlink" x="0px" y="0px"
	 viewBox="0 0 24 24" style="enable-background:new 0 0 24 24;" xml:space="preserve">
<style type="text/css">
	.st0{fill:#FFFFFF;}
</style>
<g>
	<path class="st0" d="M21.3,22H2.7C1.7,22,1,21.2,1,20.3V3.7C1,2.8,1.7,2,2.7,2h18.6C22.3,2,23,2.8,23,3.7v16.6
		C23,21.2,22.3,22,21.3,22z"/>
	<path d="M3,3h18c0.6,0,1,0.4,1,1v16c0,0.6-0.4,1-1,1H3c-0.6,0-1-0.4-1-1V4C2,3.4,2.4,3,3,3z M6,7v10h3V7H6z M10,7v10h2V7H10z M13,7
		v10h1V7H13z M15,7v10h3V7H15z"/>
</g>
</svg>
